<?xml version="1.0" encoding="UTF-8"?>
<svg id="Capa_1" xmlns="http://www.w3.org/2000/svg" version="1.1" xmlns:cc="http://creativecommons.org/ns#" xmlns:dc="http://purl.org/dc/elements/1.1/" xmlns:inkscape="http://www.inkscape.org/namespaces/inkscape" xmlns:rdf="http://www.w3.org/1999/02/22-rdf-syntax-ns#" xmlns:sodipodi="http://sodipodi.sourceforge.net/DTD/sodipodi-0.dtd" xmlns:svg="http://www.w3.org/2000/svg" viewBox="0 0 100 100">
  <!-- Generator: Adobe Illustrator 29.3.1, SVG Export Plug-In . SVG Version: 2.1.0 Build 151)  -->
  <path d="M93.1,85.2l-25.5-25.4c-1.1-1.1-3.1-1.1-4.2,0l-.7.7-1.8-1.8c4.4-5.4,7.1-12.2,7.1-19.7,0-17.1-13.9-31-31-31h0c-17.1,0-31,13.9-31,31s13.9,31,31,31,14.3-2.7,19.7-7.1l1.8,1.8-.7.8c-1.1,1.1-1.1,3.1,0,4.2l25.5,25.5c1.1,1.1,3.1,1.1,4.2,0l5.7-5.7c1.1-1.1,1.1-3.1,0-4.2ZM37,64c-13.8,0-25-11.2-25-25s11.2-25,25-25,25,11.2,25,25-11.2,25-25,25Z"/>
  <path d="M37,18c-5.8,0-11.7,2.3-16.1,6.8-1,1.2-.8,3.2,0,4.2.9,1.2,3.1,1,4.1,0,6.6-6.8,17.2-6.8,23.8,0,1.1,1.1,3.1,1.2,4.2,0,1.1-1.1,1.2-3.2,0-4.4-4.4-4.6-10.3-6.8-16.1-6.8Z"/>
</svg>