<?xml version="1.0" encoding="UTF-8"?>
<svg id="Capa_1" xmlns="http://www.w3.org/2000/svg" version="1.1" xmlns:xlink="http://www.w3.org/1999/xlink" viewBox="0 0 522.3 500">
  <!-- Generator: Adobe Illustrator 29.3.1, SVG Export Plug-In . SVG Version: 2.1.0 Build 151)  -->
  <defs>
    <style>
      .st0 {
        fill: #272727;
      }
    </style>
  </defs>
  <path class="st0" d="M250.5,88.9h0l61.1,61.1c32.3,32.3,64.5,64.5,96.8,96.8,7.7,7.7,16.3,15.1,23.3,23.5-2.6-3.4-5.2-6.7-7.8-10.1,1.4,1.9,2.5,3.9,3.5,6.1-1.7-4-3.4-8-5-11.9.6,1.8,1.1,3.5,1.4,5.3-.6-4.4-1.2-8.9-1.8-13.3.3,2.3.3,4.5,0,6.8.6-4.4,1.2-8.9,1.8-13.3-.3,1.8-.8,3.6-1.4,5.3,1.7-4,3.4-8,5-11.9-.9,2.2-2.1,4.2-3.5,6.1,2.6-3.4,5.2-6.7,7.8-10.1-5.8,6.9-12.8,13-19.1,19.4-14.2,14.2-28.4,28.4-42.6,42.6-32.4,32.4-64.8,64.8-97.1,97.1-7.4,7.4-14.9,14.9-22.3,22.3-9.1,9.1-14.6,22.5-14.6,35.4,0,12.9,5.4,26.9,14.6,35.4,9.5,8.7,22,15.2,35.4,14.6,13.3-.6,25.8-5.1,35.4-14.6,21.7-21.7,43.5-43.5,65.2-65.2l97.9-97.9c9.9-9.9,22.6-20.6,28.8-33.2,5.6-11.6,9-22.1,9-35.2,0-13.1-3.6-24.3-9.3-35.8-3.1-6.4-8-12-13-17.1-2.8-2.9-5.7-5.7-8.5-8.5-30.7-30.7-61.4-61.4-92.1-92.1s-51-51.3-76.7-76.7l-1.3-1.3c-9.1-9.1-22.5-14.6-35.4-14.6s-26.9,5.4-35.4,14.6c-8.7,9.5-15.2,22-14.6,35.4.5,12.9,4.9,25.4,14.5,35h0Z"/>
  <path class="st0" d="M14.5,88.9h0l61.1,61.1c32.3,32.3,64.5,64.5,96.8,96.8,7.7,7.7,16.3,15.1,23.3,23.5-2.6-3.4-5.2-6.7-7.8-10.1,1.4,1.9,2.5,3.9,3.5,6.1-1.7-4-3.4-8-5-11.9.6,1.8,1.1,3.5,1.4,5.3-.6-4.4-1.2-8.9-1.8-13.3.3,2.3.3,4.5,0,6.8.6-4.4,1.2-8.9,1.8-13.3-.3,1.8-.8,3.6-1.4,5.3,1.7-4,3.4-8,5-11.9-.9,2.2-2.1,4.2-3.5,6.1,2.6-3.4,5.2-6.7,7.8-10.1-5.8,6.9-12.8,13-19.1,19.4-14.2,14.2-28.4,28.4-42.6,42.6-32.4,32.4-64.8,64.8-97.1,97.1-7.4,7.4-14.9,14.9-22.3,22.3C5.5,419.8,0,433.2,0,446.1c0,12.9,5.4,26.9,14.6,35.4,9.5,8.7,22,15.2,35.4,14.6,13.3-.6,25.8-5.1,35.4-14.6,21.7-21.7,43.5-43.5,65.2-65.2l97.9-97.9c9.9-9.9,22.6-20.6,28.8-33.2,5.6-11.6,9-22.1,9-35.2,0-13.1-3.6-24.3-9.3-35.8-3.1-6.4-8-12-13-17.1-2.8-2.9-5.7-5.7-8.5-8.5-30.7-30.7-61.4-61.4-92.1-92.1-25.6-25.6-51-51.3-76.7-76.7l-1.3-1.3c-9.1-9.1-22.5-14.6-35.4-14.6s-26.9,5.4-35.4,14.6C5.9,28-.6,40.5,0,53.9c.5,12.9,4.9,25.4,14.5,35h0Z"/>
</svg>