<?xml version="1.0" encoding="UTF-8"?>
<svg id="Capa_2" data-name="Capa 2" xmlns="http://www.w3.org/2000/svg" viewBox="0 0 1726.27 18.99">
  <defs>
    <style>
      .cls-1 {
        fill: #e7d35f;
      }
    </style>
  </defs>
  <g id="Capa_1-2" data-name="Capa 1">
    <path class="cls-1" d="M1.45,16.75c28.14-.57,56.27-1.14,84.41-1.71s56.27-1.13,84.41-1.69c28.14-.56,56.28-1.11,84.41-1.65,28.14-.54,56.28-1.07,84.42-1.58,28.14-.51,56.28-1.02,84.43-1.5,28.06-.48,56.12-.95,84.18-1.39,28.06-.44,56.13-.87,84.19-1.27,28.15-.4,56.3-.78,84.45-1.13,28.11-.35,56.22-.67,84.33-.95s56.19-.51,84.29-.67c28.1-.16,56.19-.23,84.29-.21,28.09.03,56.18.16,84.27.42,27.99.26,55.98.66,83.97,1.22,27.95.56,55.9,1.29,83.85,2.19,27.99.9,55.98,1.97,83.96,3.08s56,2.28,84,3.39,55.99,2.16,83.99,3.05c27.97.89,55.95,1.62,83.94,2.09,27.94.46,55.89.66,83.84.48,27.82-.18,55.64-.73,83.45-1.76,13.44-.5,26.87-1.11,40.3-1.84,1.92-.1,1.93-3.11,0-3-27.85,1.52-55.73,2.51-83.61,3.07s-55.85.7-83.78.52c-27.97-.18-55.94-.68-83.9-1.39-28-.71-55.99-1.64-83.97-2.67-28-1.03-56-2.17-84-3.31-27.91-1.13-55.82-2.27-83.74-3.3-27.91-1.03-55.82-1.94-83.74-2.67-28.06-.73-56.12-1.27-84.18-1.67-28.08-.4-56.16-.65-84.25-.79-28.09-.13-56.19-.15-84.28-.07-28.1.08-56.2.24-84.29.47-28.09.23-56.19.52-84.28.84-28.06.32-56.12.67-84.18,1.05s-56.13.78-84.2,1.2c-28.15.43-56.29.87-84.44,1.34-28.14.47-56.29.95-84.43,1.45-28.14.5-56.28,1.02-84.42,1.55-28.14.53-56.28,1.07-84.42,1.62-28.14.55-56.27,1.11-84.41,1.67-28.05.56-56.11,1.13-84.16,1.69-13.57.27-27.14.55-40.71.82-1.93.04-1.93,3.04,0,3h0Z"/>
  </g>
</svg>