<?xml version="1.0" encoding="UTF-8"?>
<svg id="Capa_2" data-name="Capa 2" xmlns="http://www.w3.org/2000/svg" viewBox="0 0 613.49 63.92">
  <defs>
    <style>
      .cls-1 {
        fill: #e7d35f;
      }
    </style>
  </defs>
  <g id="Capa_1-2" data-name="Capa 1">
    <g>
      <path class="cls-1" d="M26.55,63.92c-8.35,0-14.86-2.01-19.53-6.02C2.34,53.88,0,47.67,0,39.25v-14.4C0,16.32,2.34,10.04,7.01,6.02,11.69,2.01,18.2,0,26.55,0c6.09,0,11.2.94,15.34,2.82s7.19,4.53,9.13,7.95c1.94,3.42,2.6,7.45,1.98,12.1-.06.38-.2.69-.42.94-.22.25-.52.38-.89.38h-12.99c-.82,0-1.22-.47-1.22-1.41.06-2.82-.75-5.1-2.45-6.82-1.69-1.73-4.46-2.59-8.28-2.59-3.52,0-6.26.96-8.24,2.87-1.98,1.92-2.97,4.97-2.97,9.18v13.08c0,4.21.99,7.26,2.97,9.18,1.98,1.92,4.72,2.87,8.24,2.87,4.02,0,6.84-.93,8.47-2.78,1.63-1.85,2.38-4.06,2.26-6.64,0-.94.41-1.41,1.22-1.41h12.9c.81,0,1.29.44,1.41,1.32.44,4.65-.33,8.68-2.31,12.1-1.98,3.42-5.01,6.07-9.08,7.95-4.08,1.88-9.1,2.82-15.06,2.82Z"/>
      <path class="cls-1" d="M88.11,63.92c-8.79,0-15.44-2.07-19.96-6.21s-6.78-10.26-6.78-18.36v-14.78c0-8.16,2.26-14.29,6.78-18.4,4.52-4.11,11.17-6.17,19.96-6.17s15.45,2.06,20,6.17c4.55,4.11,6.82,10.25,6.82,18.4v14.78c0,8.1-2.28,14.21-6.82,18.36-4.55,4.14-11.22,6.21-20,6.21ZM88.11,50.36c3.83,0,6.67-1.04,8.52-3.11,1.85-2.07,2.78-5.05,2.78-8.94v-12.71c0-3.89-.93-6.87-2.78-8.94-1.85-2.07-4.69-3.11-8.52-3.11s-6.57,1.04-8.43,3.11c-1.85,2.07-2.78,5.05-2.78,8.94v12.71c0,3.89.92,6.87,2.78,8.94,1.85,2.07,4.66,3.11,8.43,3.11Z"/>
      <path class="cls-1" d="M125.01,62.79c-.88,0-1.32-.44-1.32-1.32l1.32-59.02c0-.88.41-1.32,1.22-1.32h14.97c.69,0,1.16.31,1.41.94l14.69,30.88,14.69-30.88c.31-.63.81-.94,1.51-.94h14.87c.88,0,1.32.44,1.32,1.32l1.22,59.02c0,.88-.41,1.32-1.22,1.32h-12.61c-.88,0-1.32-.44-1.32-1.32l-.56-21.09c-.06-2.64-.03-5.41.09-8.33.12-2.92.25-5.66.38-8.24h-.38c-1.07,2.51-2.23,5.15-3.48,7.91-1.26,2.76-2.57,5.43-3.95,8l-8.66,16.76c-.31.63-.85.94-1.6.94h-.56c-.75,0-1.26-.31-1.51-.94l-8.75-16.85c-1.26-2.51-2.53-5.16-3.81-7.95-1.29-2.79-2.46-5.41-3.53-7.86h-.38c.12,2.64.25,5.4.38,8.28.12,2.89.16,5.65.09,8.28l-.56,21.09c0,.88-.44,1.32-1.32,1.32h-12.61Z"/>
      <path class="cls-1" d="M202.11,62.79c-.88,0-1.32-.44-1.32-1.32V2.45c0-.88.44-1.32,1.32-1.32h12.9c.88,0,1.32.44,1.32,1.32v59.02c0,.88-.44,1.32-1.32,1.32h-12.9Z"/>
      <path class="cls-1" d="M252.85,63.92c-8.35,0-14.86-2.01-19.53-6.02-4.68-4.02-7.01-10.23-7.01-18.64v-14.4c0-8.53,2.34-14.81,7.01-18.83,4.67-4.02,11.19-6.02,19.53-6.02,6.09,0,11.2.94,15.34,2.82s7.19,4.53,9.13,7.95c1.94,3.42,2.6,7.45,1.98,12.1-.06.38-.2.69-.42.94-.22.25-.52.38-.89.38h-12.99c-.82,0-1.22-.47-1.22-1.41.06-2.82-.75-5.1-2.45-6.82-1.69-1.73-4.46-2.59-8.28-2.59-3.52,0-6.26.96-8.24,2.87-1.98,1.92-2.97,4.97-2.97,9.18v13.08c0,4.21.99,7.26,2.97,9.18,1.98,1.92,4.72,2.87,8.24,2.87,4.02,0,6.84-.93,8.47-2.78,1.63-1.85,2.38-4.06,2.26-6.64,0-.94.41-1.41,1.22-1.41h12.9c.81,0,1.29.44,1.41,1.32.44,4.65-.33,8.68-2.31,12.1-1.98,3.42-5.01,6.07-9.08,7.95-4.08,1.88-9.1,2.82-15.06,2.82Z"/>
      <path class="cls-1" d="M308.86,62.79c-.88,0-1.32-.44-1.32-1.32V2.45c0-.88.44-1.32,1.32-1.32h39.16c.81,0,1.22.44,1.22,1.32v10.83c0,.88-.41,1.32-1.22,1.32h-24.95v11.67h21.37c.81,0,1.22.44,1.22,1.32v10.54c0,.82-.41,1.22-1.22,1.22h-21.37v22.12c0,.88-.41,1.32-1.22,1.32h-12.99Z"/>
      <path class="cls-1" d="M358.84,62.79c-.88,0-1.32-.44-1.32-1.32V2.45c0-.88.44-1.32,1.32-1.32h12.9c.88,0,1.32.44,1.32,1.32v59.02c0,.88-.44,1.32-1.32,1.32h-12.9Z"/>
      <path class="cls-1" d="M385.48,62.79c-.88,0-1.32-.44-1.32-1.32V2.45c0-.88.44-1.32,1.32-1.32h16.47c.69,0,1.19.31,1.51.94l11.86,23.63c.88,1.76,1.79,3.64,2.73,5.65.94,2.01,1.8,3.99,2.59,5.93.78,1.95,1.43,3.67,1.93,5.18h.28c-.19-1.63-.35-3.48-.47-5.55-.13-2.07-.22-4.16-.28-6.26-.06-2.1-.09-3.94-.09-5.51V2.45c0-.88.41-1.32,1.22-1.32h12.43c.88,0,1.32.44,1.32,1.32v59.02c0,.88-.44,1.32-1.32,1.32h-16.47c-.63,0-1.13-.31-1.51-.94l-11.3-22.5c-.88-1.69-1.74-3.58-2.59-5.65-.85-2.07-1.68-4.13-2.49-6.17-.82-2.04-1.57-3.84-2.26-5.41h-.28c.12,1.69.22,3.59.28,5.7.06,2.1.09,4.22.09,6.35v27.3c0,.88-.44,1.32-1.32,1.32h-12.33Z"/>
      <path class="cls-1" d="M449.4,62.79c-.88,0-1.32-.44-1.32-1.32V2.45c0-.88.44-1.32,1.32-1.32h22.12c9.92,0,17.26,2.28,22.03,6.82,4.77,4.55,7.15,11.28,7.15,20.19v6.87c0,9.16-2.39,16.08-7.15,20.76-4.77,4.68-12.11,7.01-22.03,7.01h-22.12ZM463.61,49.52h6.87c5.08,0,8.8-1.3,11.16-3.91,2.35-2.6,3.53-6.32,3.53-11.16v-5.74c0-4.58-1.18-8.11-3.53-10.59-2.35-2.48-6.07-3.72-11.16-3.72h-6.87v35.11Z"/>
      <path class="cls-1" d="M511.44,62.79c-.88,0-1.32-.44-1.32-1.32V2.45c0-.88.44-1.32,1.32-1.32h39.16c.81,0,1.22.44,1.22,1.32v10.83c0,.88-.41,1.32-1.22,1.32h-24.95v10.83h22.69c.81,0,1.22.44,1.22,1.32v10.07c0,.88-.41,1.32-1.22,1.32h-22.69v11.2h24.95c.81,0,1.22.44,1.22,1.32v10.83c0,.88-.41,1.32-1.22,1.32h-39.16Z"/>
      <path class="cls-1" d="M563.12,62.79c-.88,0-1.32-.44-1.32-1.32V2.45c0-.88.44-1.32,1.32-1.32h21.75c8.85,0,15.22,1.73,19.11,5.18,3.89,3.45,5.84,8.38,5.84,14.78,0,4.14-.88,7.69-2.64,10.64-1.76,2.95-4.58,5.02-8.47,6.21v.19l14.5,23.06c.31.44.38.82.19,1.13-.19.31-.53.47-1.04.47h-14.5c-.69,0-1.22-.28-1.6-.85l-12.8-21.65h-6.12v21.18c0,.88-.44,1.32-1.32,1.32h-12.9ZM577.33,28.15h7.53c3.14,0,5.49-.55,7.06-1.65,1.57-1.1,2.35-2.87,2.35-5.32s-.71-4.13-2.12-5.22c-1.41-1.1-3.72-1.65-6.92-1.65h-7.91v13.84Z"/>
    </g>
  </g>
</svg>